<?xml version="1.0" encoding="utf-8"?>
<!-- Generator: Adobe Illustrator 24.0.0, SVG Export Plug-In . SVG Version: 6.00 Build 0)  -->
<svg version="1.1" id="Layer_1" xmlns="http://www.w3.org/2000/svg" xmlns:xlink="http://www.w3.org/1999/xlink" x="0px" y="0px"
	 viewBox="0 0 120 24" style="enable-background:new 0 0 120 24;" xml:space="preserve">
<style type="text/css">
	.st0{fill-rule:evenodd;clip-rule:evenodd;}
	.st1{fill-rule:evenodd;clip-rule:evenodd;fill:#0095FF;}
	.st2{fill-rule:evenodd;clip-rule:evenodd;fill:#FFFFFF;}
</style>
<title>BrainFlix-Logo</title>
<desc>Created with Sketch.</desc>
<g id="BrainFlix_1_">
	<g id="BrainFlix-Logo">
		<g>
			<path id="BrainFlix" class="st0" d="M46.2,13.5v4.3h1.8c0.7,0,2.2,0,2.2-2.1c0-1.3-0.5-2.2-2.1-2.2H46.2z M46.2,7.3v3.9h2.1
				c0.7,0,1.7-0.5,1.7-1.9c0-1.1-0.8-1.9-1.8-1.9H46.2z M48.6,20.2H43V5h5.6C51,5,53,5.7,53,8.9c0,1.7-0.9,3-2.6,3.3v0
				c2.2,0.3,2.8,1.8,2.8,3.8C53.3,20,50,20.2,48.6,20.2z M55.6,9.6h2.8v1.4h0C59,9.7,60,9.3,61.2,9.3V12c-2.6-0.2-2.6,1.3-2.6,2.4
				v5.8h-3V9.6z M67.7,15c-1.5,0.1-2.6-0.1-2.6,1.8c0,0.8,0.1,1.7,1.1,1.7C68,18.5,67.7,16.2,67.7,15z M70.6,12.9v5.3
				c0,0.7,0.1,1.3,0.1,2H68l-0.1-1.4h0c-0.6,1.1-1.5,1.6-2.8,1.6c-2.1,0-2.8-1.5-2.8-3.4c0-3.5,2.7-3.7,5.5-3.6v-0.8
				c0-0.9-0.1-1.6-1.2-1.6c-1,0-1.1,0.8-1.1,1.6h-2.9c0-1.3,0.4-2.1,1.1-2.6c0.7-0.5,1.6-0.7,2.8-0.7C70.2,9.3,70.6,11,70.6,12.9z
				 M76.3,9.6v10.6h-3V9.6H76.3z M73.3,5h3v2.3h-3V5z M81.9,9.6v1.1h0c0.3-0.5,0.7-0.8,1-1c0.4-0.2,0.9-0.3,1.4-0.3
				c1.4,0,2.6,0.8,2.6,2.3v8.5h-3v-7.3c0-0.9-0.2-1.7-1.1-1.7s-1.1,0.7-1.1,1.7v7.3h-3V9.6H81.9z M92.6,20.2h-3.2V5h7.9v2.3h-4.7
				v3.9h4.5v2.3h-4.5V20.2z M98.9,5h3v15.2h-3V5z M107.7,9.6v10.6h-3V9.6H107.7z M104.8,5h3v2.3h-3V5z M114.2,16.4l-2,3.7h-2.9
				l3.1-5.6l-2.9-5h3.3l1.6,3.2l1.8-3.2h3l-2.8,5.1l3,5.5H116L114.2,16.4z"/>
			<path id="Clip-10" class="st1" d="M2.5,0.9C7.3,0.3,12.1,0,16.9,0c4.8,0,9.6,0.3,14.4,0.9c1,0.1,1.7,0.9,1.9,1.9
				c0.6,4,0.8,7.4,0.8,10.2c0,2.7-0.3,5.5-0.8,8.2c-0.2,0.9-0.9,1.6-1.8,1.7c-4.6,0.7-9.4,1.1-14.5,1.1c-5.1,0-9.9-0.4-14.5-1.1
				c-0.9-0.1-1.6-0.9-1.8-1.8C0.2,18.3,0,15.3,0,12c0-3.3,0.2-6.4,0.7-9.3C0.8,1.7,1.6,1,2.5,0.9z"/>
			<path id="Clip-13" class="st2" d="M22.4,13l-7.8,3.9c-0.5,0.3-1.2,0-1.5-0.5C13,16.2,13,16.1,13,15.9V8.1C13,7.5,13.5,7,14.1,7
				c0.2,0,0.3,0,0.5,0.1l7.8,3.9c0.5,0.3,0.8,0.9,0.5,1.5C22.8,12.7,22.6,12.9,22.4,13z"/>
		</g>
	</g>
</g>
</svg>
